<?xml version="1.0" encoding="utf-8"?>
<!-- Generator: Adobe Illustrator 27.4.0, SVG Export Plug-In . SVG Version: 6.00 Build 0)  -->
<svg version="1.1" id="Layer_1" xmlns="http://www.w3.org/2000/svg" xmlns:xlink="http://www.w3.org/1999/xlink" x="0px" y="0px"
	 viewBox="0 0 420 322.4" style="enable-background:new 0 0 420 322.4;" xml:space="preserve">
<style type="text/css">
	.st0{fill:#FFFFFF;}
	.st1{fill:#E24E2B;}
	.st2{fill:#87BC2A;}
	.st3{fill:#37A9DB;}
	.st4{fill:#F4B019;}
	.st5{fill:#757575;}
	.st6{fill:#494948;}
	.st7{fill:#737373;}
	.st8{fill:#1667B1;}
	.st9{opacity:0.6;fill:none;stroke:#1267B1;stroke-miterlimit:10;enable-background:new    ;}
	.st10{fill:none;stroke:#737373;stroke-miterlimit:10;}
	.st11{fill:#777777;}
</style>
<rect y="0.3" class="st0" width="420" height="328.4"/>
<path class="st0" d="M42.4,40h25.2v25.2H42.4V40z"/>
<path class="st1" d="M43.5,41.1h11v11h-11V41.1z"/>
<path class="st2" d="M55.6,41.1h11v11h-11V41.1z"/>
<path class="st3" d="M43.5,53.2h11v10.9h-11V53.2z"/>
<path class="st4" d="M55.6,53.2h11v10.9h-11V53.2z"/>
<g>
	<path class="st5" d="M85.5,60.3h-2v-8c0-0.7,0-1.5,0.1-2.4l0,0c-0.1,0.5-0.2,0.9-0.3,1.2l-3.7,9.2h-1.4l-3.7-9.1
		c-0.1-0.3-0.2-0.7-0.3-1.2l0,0c0.1,0.5,0.1,1.3,0.1,2.4v8h-1.9V47.9h2.9l3.2,8.2c0.2,0.6,0.4,1.1,0.5,1.4l0,0
		c0.2-0.7,0.4-1.1,0.5-1.4l3.3-8.2h2.8L85.5,60.3L85.5,60.3z"/>
	<path class="st5" d="M89.4,49.6c-0.3,0-0.6-0.1-0.8-0.3s-0.3-0.5-0.3-0.8s0.1-0.6,0.3-0.8c0.2-0.2,0.5-0.3,0.8-0.3s0.6,0.1,0.9,0.3
		c0.2,0.2,0.3,0.5,0.3,0.8s-0.1,0.6-0.3,0.8C90,49.5,89.7,49.6,89.4,49.6L89.4,49.6z M90.3,60.3h-2v-8.8h2V60.3z"/>
	<path class="st5" d="M99.2,59.9c-0.7,0.4-1.5,0.6-2.5,0.6c-1.3,0-2.4-0.4-3.2-1.2s-1.2-1.9-1.2-3.2c0-1.5,0.4-2.6,1.3-3.5
		s2-1.3,3.5-1.3c0.8,0,1.5,0.1,2.1,0.4v1.9c-0.6-0.5-1.3-0.7-2-0.7c-0.8,0-1.5,0.3-2.1,0.8c-0.5,0.6-0.8,1.3-0.8,2.2
		s0.2,1.6,0.8,2.2s1.2,0.8,2,0.8c0.7,0,1.4-0.2,2-0.8L99.2,59.9L99.2,59.9z"/>
	<path class="st5" d="M106.3,53.4c-0.2-0.2-0.6-0.3-1-0.3c-0.6,0-1.1,0.3-1.5,0.8s-0.6,1.3-0.6,2.2v4.2h-2v-8.8h2v1.8l0,0
		c0.2-0.6,0.5-1.1,0.9-1.5s0.8-0.5,1.3-0.5c0.4,0,0.6,0,0.8,0.2L106.3,53.4L106.3,53.4z"/>
	<path class="st5" d="M111.5,60.5c-1.4,0-2.4-0.4-3.2-1.2s-1.3-2-1.3-3.3c0-1.5,0.4-2.6,1.3-3.5s2-1.2,3.4-1.2s2.4,0.4,3.2,1.2
		s1.2,1.9,1.2,3.4s-0.4,2.5-1.2,3.4S112.9,60.5,111.5,60.5z M111.6,52.9c-0.8,0-1.4,0.3-1.8,0.8s-0.7,1.3-0.7,2.2s0.2,1.7,0.7,2.2
		s1.1,0.8,1.8,0.8s1.4-0.3,1.8-0.8s0.6-1.3,0.6-2.2s-0.2-1.7-0.6-2.2S112.4,52.9,111.6,52.9z"/>
	<path class="st5" d="M117.5,60v-1.8c0.7,0.6,1.6,0.8,2.5,0.8c1.2,0,1.8-0.3,1.8-1.1c0-0.2-0.1-0.4-0.2-0.5s-0.2-0.3-0.4-0.4
		l-0.6-0.3c-0.2-0.1-0.5-0.2-0.8-0.3c-0.4-0.1-0.7-0.3-1-0.5s-0.5-0.3-0.7-0.5s-0.3-0.4-0.4-0.7s-0.2-0.6-0.2-0.9
		c0-0.4,0.1-0.8,0.3-1.1c0.2-0.3,0.5-0.6,0.8-0.8s0.7-0.4,1.2-0.5s0.9-0.2,1.3-0.2c0.8,0,1.5,0.1,2.2,0.4v1.7
		c-0.6-0.4-1.3-0.6-2.1-0.6c-0.2,0-0.5,0-0.7,0.1c-0.2,0-0.4,0.1-0.5,0.2s-0.3,0.2-0.3,0.3s-0.1,0.3-0.1,0.4c0,0.2,0,0.3,0.1,0.5
		s0.2,0.2,0.4,0.3s0.3,0.2,0.6,0.3s0.5,0.2,0.8,0.3c0.4,0.2,0.7,0.3,1,0.5s0.6,0.3,0.8,0.5c0.2,0.2,0.4,0.4,0.5,0.7s0.2,0.6,0.2,1
		c0,0.5-0.1,0.8-0.3,1.2c-0.2,0.3-0.5,0.6-0.8,0.8s-0.7,0.4-1.2,0.5s-0.9,0.2-1.4,0.2C119.1,60.5,118.2,60.3,117.5,60L117.5,60z"/>
	<path class="st5" d="M129.6,60.5c-1.4,0-2.4-0.4-3.2-1.2s-1.2-1.9-1.2-3.3c0-1.5,0.4-2.6,1.3-3.5s2-1.2,3.4-1.2s2.4,0.4,3.2,1.2
		s1.1,1.9,1.1,3.4s-0.4,2.5-1.2,3.4S131,60.5,129.6,60.5L129.6,60.5z M129.7,52.9c-0.8,0-1.4,0.3-1.8,0.8c-0.4,0.5-0.7,1.3-0.7,2.2
		s0.2,1.7,0.7,2.2s1.1,0.8,1.8,0.8s1.4-0.3,1.8-0.8s0.6-1.3,0.6-2.2s-0.2-1.7-0.6-2.2S130.4,52.9,129.7,52.9z"/>
	<path class="st5" d="M140.9,48.9c-0.3-0.2-0.6-0.2-0.9-0.2c-1,0-1.4,0.5-1.4,1.6v1.2h2V53h-2v7.2h-2V53H135v-1.6h1.5V50
		c0-0.9,0.3-1.7,0.9-2.2s1.4-0.8,2.3-0.8c0.5,0,0.9,0,1.2,0.2V48.9L140.9,48.9z"/>
	<path class="st5" d="M146.9,60.2c-0.4,0.2-0.9,0.3-1.5,0.3c-1.7,0-2.6-0.8-2.6-2.5v-5h-1.5v-1.6h1.5v-2l2-0.6v2.6h2.1V53h-2.1v4.4
		c0,0.5,0.1,0.9,0.3,1.1c0.2,0.2,0.5,0.3,0.9,0.3c0.3,0,0.6-0.1,0.9-0.3L146.9,60.2L146.9,60.2L146.9,60.2z"/>
</g>
<g>
	<path class="st6" d="M48.3,103.1h-1.8V87.6h1.8V103.1z"/>
	<path class="st6" d="M61.3,103.1h-1.8v-6.3c0-2.3-0.8-3.5-2.6-3.5c-0.9,0-1.6,0.3-2.2,1s-0.9,1.5-0.9,2.5v6.3H52V92h1.8v1.8l0,0
		c0.8-1.4,2-2.1,3.6-2.1c1.2,0,2.1,0.4,2.8,1.2c0.6,0.8,1,1.9,1,3.4L61.3,103.1L61.3,103.1z"/>
	<path class="st6" d="M65.5,89.2c-0.3,0-0.6-0.1-0.8-0.3s-0.3-0.5-0.3-0.8s0.1-0.6,0.3-0.8s0.5-0.3,0.8-0.3s0.6,0.1,0.8,0.3
		s0.3,0.5,0.3,0.8s-0.1,0.6-0.3,0.8S65.8,89.2,65.5,89.2z M66.4,103h-1.8V92h1.8V103z"/>
	<path class="st6" d="M77.5,102.5c-0.8,0.5-1.8,0.8-3,0.8c-1.6,0-2.8-0.5-3.8-1.5s-1.4-2.3-1.4-4c0-1.8,0.5-3.3,1.6-4.4
		c1-1.1,2.4-1.7,4.2-1.7c1,0,1.8,0.2,2.6,0.5V94c-0.8-0.6-1.7-0.9-2.6-0.9c-1.1,0-2.1,0.4-2.8,1.2s-1.3,2-1.3,3.4s0.3,2.3,1,3.1
		c0.7,0.8,1.6,1.1,2.7,1.1c1,0,1.9-0.3,2.7-1L77.5,102.5L77.5,102.5L77.5,102.5z"/>
	<path class="st6" d="M81,89.2c-0.3,0-0.6-0.1-0.8-0.3s-0.3-0.5-0.3-0.8s0.1-0.6,0.3-0.8S80.7,87,81,87s0.6,0.1,0.8,0.3
		s0.3,0.5,0.3,0.8s-0.1,0.6-0.3,0.8S81.3,89.2,81,89.2z M81.9,103h-1.8V92h1.8V103z"/>
	<path class="st6" d="M93.3,103.1h-1.8v-1.7l0,0c-0.8,1.3-1.9,2-3.4,2c-1.1,0-2-0.3-2.6-0.9s-0.9-1.3-0.9-2.3c0-2.1,1.2-3.3,3.6-3.6
		l3.3-0.5c0-1.9-0.8-2.8-2.3-2.8c-1.3,0-2.5,0.4-3.6,1.4v-1.8c1.1-0.7,2.3-1,3.7-1c2.6,0,3.9,1.4,3.9,4.1v7.1
		C93.2,103.1,93.3,103.1,93.3,103.1z M91.6,97.5l-2.7,0.4c-0.8,0.1-1.4,0.3-1.8,0.6s-0.6,0.8-0.6,1.5c0,0.5,0.2,1,0.6,1.3
		s0.9,0.5,1.5,0.5c0.9,0,1.6-0.3,2.2-0.9s0.8-1.4,0.8-2.3V97.5z"/>
	<path class="st6" d="M102.4,93.8c-0.3-0.2-0.8-0.3-1.3-0.3c-0.8,0-1.4,0.3-1.9,1.1s-0.8,1.7-0.8,2.9v5.6h-1.8V92h1.8v2.3l0,0
		c0.2-0.8,0.6-1.4,1.2-1.8c0.5-0.4,1.1-0.7,1.7-0.7c0.5,0,0.8,0.1,1.1,0.2L102.4,93.8L102.4,93.8L102.4,93.8z"/>
	<path class="st6" d="M109.7,102.7v-1.9c1,0.7,2,1.1,3.2,1.1c1.6,0,2.3-0.5,2.3-1.6c0-0.3-0.1-0.5-0.2-0.8c-0.1-0.2-0.3-0.4-0.5-0.5
		c-0.2-0.2-0.5-0.3-0.8-0.4s-0.6-0.3-1-0.4c-0.5-0.2-0.9-0.4-1.3-0.6s-0.7-0.4-0.9-0.7s-0.4-0.5-0.6-0.8c-0.1-0.3-0.2-0.7-0.2-1.1
		c0-0.5,0.1-1,0.3-1.4c0.2-0.4,0.6-0.7,0.9-1c0.4-0.3,0.8-0.5,1.3-0.6s1-0.2,1.6-0.2c0.9,0,1.8,0.2,2.6,0.5v1.8
		c-0.8-0.5-1.7-0.8-2.8-0.8c-0.3,0-0.6,0-0.9,0.1s-0.5,0.2-0.7,0.3s-0.3,0.3-0.4,0.5s-0.2,0.4-0.2,0.6c0,0.3,0.1,0.5,0.2,0.7
		s0.3,0.4,0.5,0.5c0.2,0.2,0.4,0.3,0.7,0.4s0.6,0.2,1,0.4c0.5,0.2,0.9,0.4,1.3,0.6s0.7,0.4,1,0.7s0.5,0.5,0.6,0.8
		c0.2,0.3,0.2,0.7,0.2,1.2s-0.1,1-0.4,1.4s-0.6,0.7-1,1s-0.9,0.5-1.4,0.6s-1.1,0.2-1.7,0.2C111.5,103.3,110.5,103.1,109.7,102.7
		L109.7,102.7z"/>
	<path class="st6" d="M128.6,98h-7.8c0,1.2,0.4,2.2,1,2.8s1.5,1,2.6,1c1.2,0,2.4-0.4,3.4-1.2v1.7c-1,0.7-2.2,1.1-3.8,1.1
		s-2.8-0.5-3.7-1.5s-1.3-2.4-1.3-4.2c0-1.7,0.5-3.1,1.5-4.2s2.2-1.6,3.6-1.6s2.6,0.5,3.3,1.4s1.2,2.2,1.2,3.9V98L128.6,98L128.6,98z
		 M126.8,96.5c0-1-0.2-1.8-0.7-2.4s-1.2-0.8-2-0.8s-1.5,0.3-2.1,0.9s-0.9,1.4-1.1,2.3C120.9,96.5,126.8,96.5,126.8,96.5z"/>
	<path class="st6" d="M130.6,102.7v-1.9c1,0.7,2,1.1,3.2,1.1c1.6,0,2.3-0.5,2.3-1.6c0-0.3-0.1-0.5-0.2-0.8c-0.1-0.2-0.3-0.4-0.5-0.5
		c-0.2-0.2-0.5-0.3-0.8-0.4s-0.6-0.3-1-0.4c-0.5-0.2-0.9-0.4-1.3-0.6s-0.7-0.4-0.9-0.7s-0.4-0.5-0.6-0.8c-0.1-0.3-0.2-0.7-0.2-1.1
		c0-0.5,0.1-1,0.4-1.4c0.2-0.4,0.6-0.7,0.9-1c0.4-0.3,0.8-0.5,1.4-0.6c0.5-0.1,1-0.2,1.6-0.2c0.9,0,1.8,0.2,2.6,0.5v1.8
		c-0.8-0.5-1.7-0.8-2.8-0.8c-0.3,0-0.6,0-0.9,0.1c-0.3,0.1-0.5,0.2-0.7,0.3c-0.2,0.1-0.3,0.3-0.4,0.5c-0.1,0.2-0.2,0.4-0.2,0.6
		c0,0.3,0.1,0.5,0.2,0.7c0.1,0.2,0.3,0.4,0.5,0.5c0.2,0.2,0.4,0.3,0.7,0.4s0.6,0.2,1,0.4c0.5,0.2,0.9,0.4,1.3,0.6s0.7,0.4,1,0.7
		s0.5,0.5,0.6,0.8s0.2,0.7,0.2,1.2s-0.1,1-0.4,1.4s-0.6,0.7-1,1s-0.9,0.5-1.4,0.6s-1.1,0.2-1.6,0.2
		C132.4,103.3,131.4,103.1,130.6,102.7L130.6,102.7L130.6,102.7z"/>
	<path class="st6" d="M141.5,89.2c-0.3,0-0.6-0.1-0.8-0.3c-0.2-0.2-0.3-0.5-0.3-0.8s0.1-0.6,0.3-0.8s0.5-0.3,0.8-0.3
		s0.6,0.1,0.8,0.3c0.2,0.2,0.3,0.5,0.3,0.8s-0.1,0.6-0.3,0.8S141.8,89.2,141.5,89.2z M142.3,103h-1.8V92h1.8V103z"/>
	<path class="st6" d="M150.5,103.3c-1.6,0-2.9-0.5-3.9-1.5s-1.5-2.4-1.5-4.1c0-1.8,0.5-3.3,1.5-4.3s2.4-1.6,4.1-1.6s2.9,0.5,3.8,1.5
		c0.9,1,1.4,2.4,1.4,4.2s-0.5,3.2-1.5,4.2S152.2,103.3,150.5,103.3L150.5,103.3L150.5,103.3z M150.6,93.3c-1.1,0-2,0.4-2.7,1.2
		c-0.7,0.8-1,1.8-1,3.2s0.3,2.3,1,3.1c0.7,0.8,1.6,1.1,2.7,1.1s2-0.4,2.6-1.1s0.9-1.8,0.9-3.2s-0.3-2.4-0.9-3.2
		C152.7,93.6,151.8,93.3,150.6,93.3L150.6,93.3z M153.2,86.4l-2.8,3.5H149l2.4-3.5H153.2z"/>
	<path class="st6" d="M168,103.1h-1.8v-6.3c0-2.3-0.9-3.5-2.6-3.5c-0.9,0-1.6,0.3-2.2,1s-0.9,1.5-0.9,2.5v6.3h-1.8V92h1.8v1.8l0,0
		c0.8-1.4,2-2.1,3.6-2.1c1.2,0,2.1,0.4,2.8,1.2c0.6,0.8,1,1.9,1,3.4L168,103.1L168,103.1L168,103.1z"/>
</g>
<g>
	<path class="st7" d="M49.7,230.9c0,0.1,0.1,0.2,0.1,0.4v0.5c0,0.2,0,0.5-0.1,0.6c-0.1,0.2-0.2,0.4-0.4,0.5s-0.3,0.3-0.5,0.5
		s-0.3,0.3-0.5,0.5s-0.3,0.3-0.4,0.5c-0.1,0.2-0.1,0.4-0.1,0.6s0,0.3,0.1,0.5c0.1,0.1,0.2,0.3,0.3,0.4c0.1,0.1,0.3,0.2,0.4,0.2
		s0.3,0.1,0.5,0.1c0.6,0,1.2-0.2,1.7-0.8v1c-0.6,0.4-1.2,0.5-1.8,0.5c-0.3,0-0.6,0-0.8-0.1s-0.5-0.2-0.7-0.3s-0.3-0.3-0.5-0.6
		c-0.1-0.2-0.2-0.5-0.2-0.8s0-0.5,0.2-0.8c0.1-0.2,0.2-0.4,0.4-0.6c0.2-0.2,0.3-0.4,0.5-0.5c0.2-0.2,0.3-0.3,0.5-0.5
		s0.3-0.3,0.4-0.5s0.2-0.4,0.2-0.6s0-0.3-0.1-0.5s-0.1-0.3-0.1-0.4L49.7,230.9L49.7,230.9L49.7,230.9z M49.2,228.5
		c0.2,0,0.3,0.1,0.4,0.2c0.1,0.1,0.2,0.3,0.2,0.4s-0.1,0.3-0.2,0.4c-0.1,0.1-0.3,0.2-0.4,0.2s-0.3-0.1-0.4-0.2
		c-0.1-0.1-0.2-0.3-0.2-0.4s0.1-0.3,0.2-0.4S49,228.5,49.2,228.5z"/>
	<path class="st7" d="M58.9,234.4h-1.2l-4.2-6.4c-0.1-0.2-0.2-0.3-0.3-0.5l0,0v7h-1v-8.1h1.2l4,6.4c0.2,0.3,0.3,0.4,0.3,0.5l0,0
		c0-0.2-0.1-0.6-0.1-1.2v-5.7h1v8H58.9z"/>
	<path class="st7" d="M63.3,234.6c-0.8,0-1.5-0.3-2-0.8s-0.8-1.3-0.8-2.1c0-1,0.3-1.7,0.8-2.3s1.2-0.8,2.2-0.8c0.9,0,1.5,0.3,2,0.8
		s0.7,1.3,0.7,2.2s-0.3,1.7-0.8,2.2S64.2,234.6,63.3,234.6L63.3,234.6L63.3,234.6z M63.4,229.3c-0.6,0-1.1,0.2-1.4,0.6
		c-0.3,0.4-0.5,1-0.5,1.7s0.2,1.2,0.5,1.6c0.3,0.4,0.8,0.6,1.4,0.6c0.6,0,1.1-0.2,1.4-0.6s0.5-0.9,0.5-1.6s-0.2-1.3-0.5-1.7
		S64,229.3,63.4,229.3z"/>
	<path class="st7" d="M73.6,234.4c-0.2,0.1-0.5,0.2-0.9,0.2c-1,0-1.5-0.6-1.5-1.7v-3.4h-1v-0.8h1v-1.4l0.9-0.3v1.7h1.5v0.8h-1.5v3.3
		c0,0.4,0.1,0.7,0.2,0.8s0.3,0.2,0.7,0.2c0.2,0,0.4-0.1,0.6-0.2L73.6,234.4L73.6,234.4L73.6,234.4z"/>
	<path class="st7" d="M75.3,227.2c-0.2,0-0.3-0.1-0.4-0.2s-0.2-0.3-0.2-0.4s0.1-0.3,0.2-0.4c0.1-0.1,0.3-0.2,0.4-0.2
		s0.3,0.1,0.4,0.2c0.1,0.1,0.2,0.3,0.2,0.4s-0.1,0.3-0.2,0.4S75.4,227.2,75.3,227.2z M75.7,234.4h-0.9v-5.8h0.9V234.4z"/>
	<path class="st7" d="M82.2,231.8h-4.1c0,0.6,0.2,1.1,0.5,1.5s0.8,0.5,1.4,0.5c0.7,0,1.2-0.2,1.8-0.6v0.9c-0.5,0.4-1.2,0.6-2,0.6
		s-1.5-0.3-1.9-0.8c-0.5-0.5-0.7-1.3-0.7-2.2s0.2-1.6,0.8-2.2c0.5-0.6,1.1-0.9,1.9-0.9s1.3,0.2,1.8,0.7s0.6,1.2,0.6,2L82.2,231.8
		L82.2,231.8L82.2,231.8z M81.3,231c0-0.5-0.1-0.9-0.4-1.2s-0.6-0.4-1.1-0.4s-0.8,0.2-1.1,0.5c-0.3,0.3-0.5,0.7-0.6,1.2
		C78.2,231,81.3,231,81.3,231z"/>
	<path class="st7" d="M88.4,234.4h-0.9v-3.3c0-1.2-0.4-1.8-1.3-1.8c-0.5,0-0.8,0.2-1.2,0.5s-0.4,0.8-0.4,1.3v3.3h-0.9v-5.8h0.9v1
		l0,0c0.4-0.7,1.1-1.1,1.9-1.1c0.6,0,1.1,0.2,1.4,0.6c0.3,0.4,0.5,1,0.5,1.8V234.4L88.4,234.4z"/>
	<path class="st7" d="M94.8,231.8h-4.1c0,0.6,0.2,1.1,0.5,1.5s0.8,0.5,1.4,0.5c0.7,0,1.2-0.2,1.8-0.6v0.9c-0.5,0.4-1.2,0.6-2,0.6
		s-1.5-0.3-1.9-0.8c-0.5-0.5-0.7-1.3-0.7-2.2s0.2-1.6,0.8-2.2c0.5-0.6,1.1-0.9,1.9-0.9s1.3,0.2,1.8,0.7s0.6,1.2,0.6,2L94.8,231.8
		L94.8,231.8L94.8,231.8z M93.9,231c0-0.5-0.1-0.9-0.4-1.2s-0.6-0.4-1.1-0.4s-0.8,0.2-1.1,0.5c-0.3,0.3-0.5,0.7-0.6,1.2
		C90.8,231,93.9,231,93.9,231z"/>
	<path class="st7" d="M104.1,234.4h-0.9v-0.9l0,0c-0.4,0.7-1,1.1-1.8,1.1c-1.4,0-2.1-0.8-2.1-2.5v-3.5h0.9v3.3
		c0,1.2,0.5,1.8,1.4,1.8c0.4,0,0.8-0.2,1.1-0.5c0.3-0.3,0.4-0.8,0.4-1.3v-3.3h0.9L104.1,234.4L104.1,234.4L104.1,234.4z"/>
	<path class="st7" d="M110.8,234.4h-0.9v-3.3c0-1.2-0.4-1.8-1.3-1.8c-0.5,0-0.8,0.2-1.2,0.5s-0.4,0.8-0.4,1.3v3.3h-1v-5.8h0.9v1l0,0
		c0.4-0.7,1.1-1.1,1.9-1.1c0.6,0,1.1,0.2,1.4,0.6c0.3,0.4,0.5,1,0.5,1.8L110.8,234.4L110.8,234.4z"/>
	<path class="st7" d="M116.6,234.4h-0.9v-0.9l0,0c-0.4,0.7-1,1-1.8,1c-0.6,0-1-0.1-1.3-0.5c-0.3-0.3-0.5-0.7-0.5-1.2
		c0-1.1,0.6-1.7,1.9-1.9l1.7-0.2c0-1-0.4-1.5-1.2-1.5c-0.7,0-1.3,0.2-1.9,0.7V229c0.6-0.4,1.2-0.5,2-0.5c1.4,0,2,0.7,2,2.2
		L116.6,234.4L116.6,234.4L116.6,234.4z M115.7,231.5l-1.4,0.2c-0.4,0.1-0.8,0.2-1,0.3s-0.3,0.4-0.3,0.8c0,0.3,0.1,0.5,0.3,0.7
		c0.2,0.2,0.5,0.3,0.8,0.3c0.5,0,0.8-0.2,1.1-0.5s0.4-0.7,0.4-1.2L115.7,231.5L115.7,231.5z"/>
	<path class="st7" d="M125.5,234.2c-0.4,0.3-1,0.4-1.6,0.4c-0.8,0-1.5-0.3-2-0.8s-0.8-1.2-0.8-2.1s0.3-1.7,0.8-2.3s1.3-0.9,2.2-0.9
		c0.5,0,1,0.1,1.3,0.3v0.9c-0.4-0.3-0.9-0.4-1.4-0.4c-0.6,0-1.1,0.2-1.4,0.6c-0.4,0.4-0.6,1-0.6,1.7s0.2,1.2,0.5,1.6
		c0.4,0.4,0.8,0.6,1.4,0.6c0.5,0,1-0.2,1.4-0.5L125.5,234.2L125.5,234.2z"/>
	<path class="st7" d="M131.6,234.4h-0.9v-0.9l0,0c-0.4,0.7-1,1.1-1.8,1.1c-1.4,0-2.1-0.8-2.1-2.5v-3.5h0.9v3.3
		c0,1.2,0.5,1.8,1.4,1.8c0.4,0,0.8-0.2,1.1-0.5s0.4-0.8,0.4-1.3v-3.3h0.9L131.6,234.4L131.6,234.4L131.6,234.4z"/>
	<path class="st7" d="M138.1,231.8H134c0,0.6,0.2,1.1,0.5,1.5s0.8,0.5,1.4,0.5s1.2-0.2,1.8-0.6v0.9c-0.5,0.4-1.2,0.6-2,0.6
		s-1.5-0.3-1.9-0.8c-0.5-0.5-0.7-1.3-0.7-2.2s0.2-1.6,0.8-2.2c0.5-0.6,1.1-0.9,1.9-0.9s1.3,0.2,1.8,0.7s0.6,1.2,0.6,2L138.1,231.8
		L138.1,231.8z M137.1,231c0-0.5-0.1-0.9-0.4-1.2s-0.6-0.4-1.1-0.4s-0.8,0.2-1.1,0.5s-0.5,0.7-0.6,1.2h3.2L137.1,231L137.1,231
		L137.1,231z"/>
	<path class="st7" d="M144.3,234.4h-0.9v-3.3c0-1.2-0.4-1.8-1.3-1.8c-0.5,0-0.9,0.2-1.1,0.5c-0.3,0.4-0.4,0.8-0.4,1.3v3.3h-0.9v-5.8
		h0.9v1l0,0c0.4-0.7,1.1-1.1,1.9-1.1c0.6,0,1.1,0.2,1.4,0.6s0.5,1,0.5,1.8L144.3,234.4L144.3,234.4L144.3,234.4z"/>
	<path class="st7" d="M148.7,234.4c-0.2,0.1-0.5,0.2-0.9,0.2c-1,0-1.5-0.6-1.5-1.7v-3.4h-1v-0.8h1v-1.4l0.9-0.3v1.7h1.5v0.8h-1.5
		v3.3c0,0.4,0.1,0.7,0.2,0.8s0.4,0.2,0.6,0.2s0.4-0.1,0.6-0.2L148.7,234.4L148.7,234.4L148.7,234.4z"/>
	<path class="st7" d="M154.1,234.4h-0.9v-0.9l0,0c-0.4,0.7-1,1-1.8,1c-0.6,0-1-0.1-1.4-0.5c-0.3-0.3-0.5-0.7-0.5-1.2
		c0-1.1,0.6-1.7,1.9-1.9l1.7-0.2c0-1-0.4-1.5-1.2-1.5c-0.7,0-1.3,0.2-1.9,0.7V229c0.6-0.4,1.2-0.5,2-0.5c1.4,0,2,0.7,2,2.2
		L154.1,234.4L154.1,234.4L154.1,234.4z M153.2,231.5l-1.4,0.2c-0.4,0.1-0.8,0.2-1,0.3s-0.3,0.4-0.3,0.8c0,0.3,0.1,0.5,0.3,0.7
		s0.5,0.3,0.8,0.3c0.5,0,0.8-0.2,1.1-0.5s0.4-0.7,0.4-1.2L153.2,231.5L153.2,231.5L153.2,231.5z"/>
	<path class="st7" d="M156.8,232.2c0-0.1-0.1-0.2-0.1-0.4v-0.5c0-0.2,0.1-0.5,0.1-0.6c0.1-0.2,0.2-0.4,0.4-0.5s0.3-0.3,0.5-0.5
		l0.5-0.5c0.2-0.2,0.3-0.3,0.4-0.5s0.1-0.4,0.1-0.6s0-0.3-0.1-0.5s-0.2-0.3-0.3-0.4c-0.1-0.1-0.3-0.2-0.4-0.2s-0.3-0.1-0.5-0.1
		c-0.6,0-1.2,0.2-1.6,0.8v-1c0.6-0.4,1.2-0.5,1.8-0.5c0.3,0,0.6,0,0.8,0.1s0.5,0.2,0.7,0.3s0.3,0.3,0.4,0.6c0.1,0.2,0.2,0.5,0.2,0.8
		s-0.1,0.5-0.1,0.8c-0.1,0.2-0.2,0.4-0.4,0.6c-0.1,0.2-0.3,0.4-0.5,0.5l-0.5,0.5c-0.1,0.2-0.3,0.3-0.4,0.5c-0.1,0.2-0.1,0.4-0.1,0.6
		s0,0.3,0.1,0.5s0.1,0.3,0.1,0.4L156.8,232.2L156.8,232.2L156.8,232.2z M157.3,234.6c-0.2,0-0.3-0.1-0.4-0.2s-0.2-0.3-0.2-0.4
		s0.1-0.3,0.2-0.4s0.3-0.2,0.4-0.2s0.3,0.1,0.4,0.2s0.2,0.3,0.2,0.4s-0.1,0.3-0.2,0.4S157.5,234.6,157.3,234.6z"/>
	<path class="st8" d="M169.8,234.1c-0.6,0.3-1.3,0.5-2.2,0.5c-1.1,0-2.1-0.4-2.8-1.1c-0.7-0.7-1-1.7-1-2.9c0-1.3,0.4-2.3,1.2-3.1
		s1.8-1.2,3-1.2c0.8,0,1.4,0.1,1.9,0.3v1c-0.6-0.3-1.2-0.5-1.9-0.5c-0.9,0-1.7,0.3-2.3,0.9s-0.9,1.4-0.9,2.5s0.3,1.8,0.8,2.4
		s1.2,0.9,2.1,0.9c0.8,0,1.5-0.2,2.1-0.5L169.8,234.1L169.8,234.1L169.8,234.1z"/>
	<path class="st8" d="M174.4,229.6c-0.2-0.1-0.4-0.2-0.7-0.2c-0.4,0-0.7,0.2-1,0.6c-0.3,0.4-0.4,0.9-0.4,1.5v2.9h-0.9v-5.8h0.9v1.2
		l0,0c0.1-0.4,0.3-0.7,0.6-0.9s0.6-0.3,0.9-0.3c0.2,0,0.4,0,0.6,0.1L174.4,229.6L174.4,229.6L174.4,229.6z"/>
	<path class="st8" d="M180,231.8h-4.1c0,0.6,0.2,1.1,0.5,1.5s0.8,0.5,1.4,0.5s1.2-0.2,1.8-0.6v0.9c-0.5,0.4-1.2,0.6-2,0.6
		s-1.5-0.3-1.9-0.8c-0.5-0.5-0.7-1.3-0.7-2.2s0.2-1.6,0.8-2.2c0.5-0.6,1.1-0.9,1.9-0.9s1.3,0.2,1.8,0.7s0.6,1.2,0.6,2L180,231.8
		L180,231.8z M179.1,231c0-0.5-0.1-0.9-0.4-1.2s-0.6-0.4-1.1-0.4s-0.8,0.2-1.1,0.5s-0.5,0.7-0.6,1.2h3.2L179.1,231L179.1,231
		L179.1,231z"/>
	<path class="st8" d="M186.1,231.8H182c0,0.6,0.2,1.1,0.5,1.5s0.8,0.5,1.4,0.5s1.2-0.2,1.8-0.6v0.9c-0.5,0.4-1.2,0.6-2,0.6
		s-1.5-0.3-1.9-0.8c-0.5-0.5-0.7-1.3-0.7-2.2s0.2-1.6,0.8-2.2c0.5-0.6,1.1-0.9,1.9-0.9s1.3,0.2,1.8,0.7s0.6,1.2,0.6,2L186.1,231.8
		L186.1,231.8z M185.1,231c0-0.5-0.1-0.9-0.4-1.2s-0.6-0.4-1.1-0.4s-0.8,0.2-1.1,0.5s-0.5,0.7-0.6,1.2h3.2L185.1,231L185.1,231
		L185.1,231z"/>
	<path class="st8" d="M195.3,234.4h-0.9v-0.9l0,0c-0.4,0.7-1,1.1-1.8,1.1c-1.4,0-2.1-0.8-2.1-2.5v-3.5h0.9v3.3
		c0,1.2,0.5,1.8,1.4,1.8c0.4,0,0.8-0.2,1.1-0.5s0.4-0.8,0.4-1.3v-3.3h0.9L195.3,234.4L195.3,234.4L195.3,234.4z"/>
	<path class="st8" d="M202,234.4h-1v-3.3c0-1.2-0.4-1.8-1.3-1.8c-0.5,0-0.9,0.2-1.1,0.5c-0.3,0.4-0.4,0.8-0.4,1.3v3.3h-0.9v-5.8h0.9
		v1l0,0c0.4-0.7,1.1-1.1,1.9-1.1c0.6,0,1.1,0.2,1.4,0.6s0.5,1,0.5,1.8L202,234.4L202,234.4L202,234.4z"/>
	<path class="st8" d="M207.8,234.4h-0.9v-0.9l0,0c-0.4,0.7-1,1-1.8,1c-0.6,0-1-0.1-1.4-0.5c-0.3-0.3-0.5-0.7-0.5-1.2
		c0-1.1,0.6-1.7,1.9-1.9l1.7-0.2c0-1-0.4-1.5-1.2-1.5c-0.7,0-1.3,0.2-1.9,0.7V229c0.6-0.4,1.2-0.5,2-0.5c1.4,0,2,0.7,2,2.2
		L207.8,234.4L207.8,234.4L207.8,234.4z M206.9,231.5l-1.4,0.2c-0.4,0.1-0.8,0.2-1,0.3s-0.3,0.4-0.3,0.8c0,0.3,0.1,0.5,0.3,0.7
		s0.5,0.3,0.8,0.3c0.5,0,0.8-0.2,1.1-0.5s0.4-0.7,0.4-1.2L206.9,231.5L206.9,231.5L206.9,231.5z"/>
	<path class="st8" d="M209.9,234.6c-0.2,0-0.3-0.1-0.4-0.2s-0.2-0.3-0.2-0.4s0.1-0.3,0.2-0.4s0.3-0.2,0.4-0.2s0.3,0.1,0.4,0.2
		s0.2,0.3,0.2,0.4s-0.1,0.3-0.2,0.4S210.1,234.6,209.9,234.6z"/>
</g>
<g>
	<path class="st8" d="M47.5,256.8h-1v-8.1h1V256.8z"/>
	<path class="st8" d="M54.3,256.8h-0.9v-3.3c0-1.2-0.5-1.8-1.3-1.8c-0.5,0-0.8,0.2-1.2,0.5c-0.3,0.4-0.5,0.8-0.5,1.3v3.3h-0.9V251
		h0.9v1l0,0c0.4-0.7,1.1-1.1,1.9-1.1c0.6,0,1.1,0.2,1.5,0.6s0.5,1,0.5,1.8V256.8L54.3,256.8z"/>
	<path class="st8" d="M56.6,249.5c-0.2,0-0.3-0.1-0.4-0.2S56,249,56,248.9s0.1-0.3,0.2-0.4c0.1-0.1,0.3-0.2,0.4-0.2s0.3,0.1,0.4,0.2
		c0.1,0.1,0.2,0.3,0.2,0.4s-0.1,0.3-0.2,0.4S56.7,249.5,56.6,249.5z M57,256.8h-0.9V251H57V256.8z"/>
	<path class="st8" d="M62.8,256.5c-0.4,0.3-1,0.4-1.6,0.4c-0.8,0-1.5-0.3-2-0.8s-0.8-1.2-0.8-2.1s0.3-1.7,0.8-2.3s1.3-0.9,2.2-0.9
		c0.5,0,1,0.1,1.3,0.3v0.9c-0.4-0.3-0.9-0.4-1.4-0.4c-0.6,0-1.1,0.2-1.5,0.6c-0.4,0.4-0.6,1-0.6,1.7s0.2,1.2,0.5,1.6
		c0.4,0.4,0.8,0.6,1.4,0.6c0.5,0,1-0.2,1.4-0.5L62.8,256.5L62.8,256.5z"/>
	<path class="st8" d="M64.7,249.5c-0.2,0-0.3-0.1-0.4-0.2s-0.2-0.3-0.2-0.4s0.1-0.3,0.2-0.4c0.1-0.1,0.3-0.2,0.4-0.2
		s0.3,0.1,0.4,0.2c0.1,0.1,0.2,0.3,0.2,0.4s-0.1,0.3-0.2,0.4S64.9,249.5,64.7,249.5z M65.1,256.8h-0.9V251h0.9V256.8z"/>
	<path class="st8" d="M71.2,256.8h-0.9v-0.9l0,0c-0.4,0.7-1,1-1.8,1c-0.6,0-1-0.1-1.3-0.5c-0.3-0.3-0.5-0.7-0.5-1.2
		c0-1.1,0.6-1.7,1.9-1.9l1.7-0.2c0-1-0.4-1.5-1.2-1.5c-0.7,0-1.3,0.2-1.9,0.7v-0.9c0.6-0.4,1.2-0.5,2-0.5c1.4,0,2,0.7,2,2.2
		L71.2,256.8L71.2,256.8L71.2,256.8z M70.2,253.9l-1.4,0.2c-0.4,0.1-0.8,0.2-1,0.3s-0.3,0.4-0.3,0.8c0,0.3,0.1,0.5,0.3,0.7
		c0.2,0.2,0.5,0.3,0.8,0.3c0.5,0,0.8-0.2,1.1-0.5s0.4-0.7,0.4-1.2L70.2,253.9L70.2,253.9L70.2,253.9z"/>
	<path class="st8" d="M75.9,251.9c-0.2-0.1-0.4-0.2-0.7-0.2c-0.4,0-0.7,0.2-1,0.6c-0.3,0.4-0.4,0.9-0.4,1.5v2.9h-0.9V251h0.9v1.2
		l0,0c0.1-0.4,0.3-0.7,0.6-0.9s0.6-0.3,0.9-0.3c0.2,0,0.4,0,0.6,0.1V251.9L75.9,251.9L75.9,251.9z"/>
	<path class="st8" d="M79.8,256.6v-1c0.5,0.4,1.1,0.6,1.7,0.6c0.8,0,1.2-0.3,1.2-0.8c0-0.1,0-0.3-0.1-0.4c-0.1-0.1-0.2-0.2-0.3-0.3
		c-0.1-0.1-0.3-0.2-0.4-0.2s-0.3-0.1-0.5-0.2c-0.3-0.1-0.5-0.2-0.7-0.3s-0.4-0.2-0.5-0.4s-0.2-0.3-0.3-0.4s-0.1-0.4-0.1-0.6
		c0-0.3,0.1-0.5,0.2-0.7s0.3-0.4,0.5-0.5s0.4-0.2,0.7-0.3s0.5-0.1,0.8-0.1c0.5,0,0.9,0.1,1.3,0.3v0.9c-0.4-0.3-0.9-0.4-1.5-0.4
		c-0.2,0-0.3,0-0.5,0.1s-0.3,0.1-0.4,0.2c-0.1,0.1-0.2,0.2-0.2,0.3c-0.1,0.1-0.1,0.2-0.1,0.3s0,0.3,0.1,0.4s0.1,0.2,0.2,0.3
		s0.2,0.1,0.4,0.2s0.3,0.1,0.5,0.2c0.3,0.1,0.5,0.2,0.7,0.3s0.4,0.2,0.5,0.4s0.2,0.3,0.3,0.4s0.1,0.4,0.1,0.6c0,0.3-0.1,0.5-0.2,0.8
		c-0.1,0.3-0.3,0.4-0.5,0.5s-0.4,0.2-0.7,0.3c-0.3,0.1-0.6,0.1-0.9,0.1C80.7,256.9,80.2,256.8,79.8,256.6L79.8,256.6z"/>
	<path class="st8" d="M89.7,254.1h-4.1c0,0.6,0.2,1.1,0.5,1.5s0.8,0.5,1.4,0.5c0.7,0,1.2-0.2,1.8-0.6v0.9c-0.5,0.4-1.2,0.6-2,0.6
		s-1.5-0.3-1.9-0.8c-0.5-0.5-0.7-1.3-0.7-2.2s0.2-1.6,0.8-2.2c0.5-0.6,1.1-0.9,1.9-0.9s1.3,0.2,1.8,0.7s0.6,1.2,0.6,2L89.7,254.1
		L89.7,254.1L89.7,254.1z M88.7,253.3c0-0.5-0.1-0.9-0.4-1.2s-0.6-0.4-1.1-0.4s-0.8,0.2-1.1,0.5c-0.3,0.3-0.5,0.7-0.6,1.2
		C85.6,253.3,88.7,253.3,88.7,253.3z"/>
	<path class="st8" d="M90.7,256.6v-1c0.5,0.4,1.1,0.6,1.7,0.6c0.8,0,1.2-0.3,1.2-0.8c0-0.1,0-0.3-0.1-0.4c-0.1-0.1-0.2-0.2-0.3-0.3
		c-0.1-0.1-0.3-0.2-0.4-0.2s-0.3-0.1-0.5-0.2c-0.3-0.1-0.5-0.2-0.7-0.3s-0.4-0.2-0.5-0.4s-0.2-0.3-0.3-0.4s-0.1-0.4-0.1-0.6
		c0-0.3,0.1-0.5,0.2-0.7s0.3-0.4,0.5-0.5s0.4-0.2,0.7-0.3s0.5-0.1,0.8-0.1c0.5,0,0.9,0.1,1.3,0.3v0.9c-0.4-0.3-0.9-0.4-1.5-0.4
		c-0.2,0-0.3,0-0.5,0.1s-0.3,0.1-0.4,0.2c-0.1,0.1-0.2,0.2-0.2,0.3c-0.1,0.1-0.1,0.2-0.1,0.3s0,0.3,0.1,0.4s0.1,0.2,0.2,0.3
		s0.2,0.1,0.4,0.2s0.3,0.1,0.5,0.2c0.3,0.1,0.5,0.2,0.7,0.3s0.4,0.2,0.5,0.4s0.2,0.3,0.3,0.4s0.1,0.4,0.1,0.6c0,0.3-0.1,0.5-0.2,0.8
		c-0.1,0.3-0.3,0.4-0.5,0.5s-0.4,0.2-0.7,0.3c-0.3,0.1-0.6,0.1-0.9,0.1C91.7,256.9,91.1,256.8,90.7,256.6L90.7,256.6z"/>
	<path class="st8" d="M96.4,249.5c-0.2,0-0.3-0.1-0.4-0.2s-0.2-0.3-0.2-0.4s0.1-0.3,0.2-0.4c0.1-0.1,0.3-0.2,0.4-0.2
		s0.3,0.1,0.4,0.2c0.1,0.1,0.2,0.3,0.2,0.4s-0.1,0.3-0.2,0.4S96.6,249.5,96.4,249.5z M96.9,256.8H96V251h0.9V256.8z"/>
	<path class="st8" d="M101.2,256.9c-0.8,0-1.5-0.3-2.1-0.8s-0.8-1.3-0.8-2.1c0-1,0.3-1.7,0.8-2.3s1.2-0.8,2.2-0.8s1.5,0.3,2,0.8
		s0.7,1.3,0.7,2.2s-0.3,1.7-0.8,2.2C102.7,256.6,102.1,256.9,101.2,256.9L101.2,256.9z M101.2,251.6c-0.6,0-1.1,0.2-1.4,0.6
		c-0.3,0.4-0.5,1-0.5,1.7s0.2,1.2,0.5,1.6c0.3,0.4,0.8,0.6,1.4,0.6s1.1-0.2,1.4-0.6s0.5-0.9,0.5-1.6s-0.2-1.3-0.5-1.7
		S101.8,251.6,101.2,251.6z M102.6,248.1l-1.5,1.9h-0.7l1.3-1.9C101.7,248.1,102.6,248.1,102.6,248.1z"/>
	<path class="st8" d="M110.3,256.8h-0.9v-3.3c0-1.2-0.4-1.8-1.3-1.8c-0.5,0-0.8,0.2-1.2,0.5s-0.4,0.8-0.4,1.3v3.3h-0.9V251h0.9v1
		l0,0c0.4-0.7,1.1-1.1,1.9-1.1c0.6,0,1.1,0.2,1.4,0.6c0.3,0.4,0.5,1,0.5,1.8V256.8L110.3,256.8z"/>
	<path class="st8" d="M119.2,256.5c-0.4,0.3-1,0.4-1.6,0.4c-0.8,0-1.5-0.3-2-0.8s-0.8-1.2-0.8-2.1s0.3-1.7,0.8-2.3s1.3-0.9,2.2-0.9
		c0.5,0,1,0.1,1.3,0.3v0.9c-0.4-0.3-0.9-0.4-1.4-0.4c-0.6,0-1.1,0.2-1.4,0.6c-0.4,0.4-0.6,1-0.6,1.7s0.2,1.2,0.5,1.6
		c0.4,0.4,0.8,0.6,1.4,0.6c0.5,0,1-0.2,1.4-0.5L119.2,256.5L119.2,256.5z"/>
	<path class="st8" d="M123,256.9c-0.8,0-1.5-0.3-2.1-0.8s-0.8-1.3-0.8-2.1c0-1,0.3-1.7,0.8-2.3s1.2-0.8,2.2-0.8s1.5,0.3,2,0.8
		s0.7,1.3,0.7,2.2s-0.3,1.7-0.8,2.2C124.5,256.6,123.9,256.9,123,256.9L123,256.9z M123.1,251.6c-0.6,0-1.1,0.2-1.4,0.6
		c-0.3,0.4-0.5,1-0.5,1.7s0.2,1.2,0.5,1.6c0.3,0.4,0.8,0.6,1.4,0.6s1.1-0.2,1.4-0.6s0.5-0.9,0.5-1.6s-0.2-1.3-0.5-1.7
		S123.7,251.6,123.1,251.6z"/>
	<path class="st8" d="M132.2,256.8h-0.9v-3.3c0-1.2-0.4-1.8-1.3-1.8c-0.5,0-0.9,0.2-1.1,0.5c-0.3,0.4-0.4,0.8-0.4,1.3v3.3h-0.9V251
		h0.9v1l0,0c0.4-0.7,1.1-1.1,1.9-1.1c0.6,0,1.1,0.2,1.4,0.6s0.5,1,0.5,1.8L132.2,256.8L132.2,256.8L132.2,256.8z"/>
	<path class="st8" d="M141.8,256.8h-0.9v-0.9l0,0c-0.4,0.7-1,1.1-1.8,1.1c-1.4,0-2.1-0.8-2.1-2.5V251h0.9v3.3c0,1.2,0.5,1.8,1.4,1.8
		c0.4,0,0.8-0.2,1.1-0.5s0.4-0.8,0.4-1.3V251h0.9L141.8,256.8L141.8,256.8L141.8,256.8z"/>
	<path class="st8" d="M148.4,256.8h-0.9v-3.3c0-1.2-0.4-1.8-1.3-1.8c-0.5,0-0.9,0.2-1.1,0.5c-0.3,0.4-0.4,0.8-0.4,1.3v3.3h-0.9V251
		h0.9v1l0,0c0.4-0.7,1.1-1.1,1.9-1.1c0.6,0,1.1,0.2,1.4,0.6s0.5,1,0.5,1.8L148.4,256.8L148.4,256.8L148.4,256.8z"/>
	<path class="st8" d="M154.3,256.8h-0.9v-0.9l0,0c-0.4,0.7-1,1-1.8,1c-0.6,0-1-0.1-1.4-0.5c-0.3-0.3-0.5-0.7-0.5-1.2
		c0-1.1,0.6-1.7,1.9-1.9l1.7-0.2c0-1-0.4-1.5-1.2-1.5c-0.7,0-1.3,0.2-1.9,0.7v-0.9c0.6-0.4,1.2-0.5,2-0.5c1.4,0,2,0.7,2,2.2
		L154.3,256.8L154.3,256.8L154.3,256.8z M153.4,253.9l-1.4,0.2c-0.4,0.1-0.8,0.2-1,0.3s-0.3,0.4-0.3,0.8c0,0.3,0.1,0.5,0.3,0.7
		c0.2,0.2,0.5,0.3,0.8,0.3c0.5,0,0.8-0.2,1.1-0.5s0.4-0.7,0.4-1.2L153.4,253.9L153.4,253.9L153.4,253.9z"/>
	<path class="st8" d="M160.1,256.8h-0.9v-8.6h0.9V256.8z"/>
	<path class="st8" d="M162.9,256.8H162v-8.6h0.9V256.8z"/>
	<path class="st8" d="M169,256.8h-1v-0.9l0,0c-0.4,0.7-1,1-1.8,1c-0.6,0-1-0.1-1.4-0.5c-0.3-0.3-0.5-0.7-0.5-1.2
		c0-1.1,0.6-1.7,1.9-1.9l1.7-0.2c0-1-0.4-1.5-1.2-1.5c-0.7,0-1.3,0.2-1.9,0.7v-0.9c0.6-0.4,1.2-0.5,2-0.5c1.4,0,2,0.7,2,2.2
		L169,256.8L169,256.8L169,256.8z M168,253.9l-1.4,0.2c-0.4,0.1-0.8,0.2-1,0.3s-0.3,0.4-0.3,0.8c0,0.3,0.1,0.5,0.3,0.7
		c0.2,0.2,0.5,0.3,0.8,0.3c0.5,0,0.8-0.2,1.1-0.5s0.4-0.7,0.4-1.2L168,253.9L168,253.9L168,253.9z"/>
	<path class="st8" d="M175.2,251l-2.3,5.8H172l-2.2-5.8h1l1.5,4.2c0.1,0.3,0.2,0.6,0.2,0.8l0,0c0-0.3,0.1-0.6,0.2-0.8l1.5-4.2
		L175.2,251L175.2,251z"/>
	<path class="st8" d="M180.9,254.1h-4.1c0,0.6,0.2,1.1,0.5,1.5s0.8,0.5,1.4,0.5s1.2-0.2,1.8-0.6v0.9c-0.5,0.4-1.2,0.6-2,0.6
		s-1.5-0.3-1.9-0.8c-0.5-0.5-0.7-1.3-0.7-2.2s0.2-1.6,0.8-2.2c0.5-0.6,1.1-0.9,1.9-0.9s1.3,0.2,1.8,0.7s0.6,1.2,0.6,2L180.9,254.1
		L180.9,254.1L180.9,254.1z M179.9,253.3c0-0.5-0.1-0.9-0.4-1.2s-0.6-0.4-1.1-0.4s-0.8,0.2-1.1,0.5s-0.5,0.7-0.6,1.2h3.2
		L179.9,253.3L179.9,253.3L179.9,253.3z"/>
	<path class="st8" d="M190.4,256.8h-0.9v-1l0,0c-0.4,0.8-1.1,1.1-2,1.1c-0.7,0-1.3-0.3-1.7-0.8s-0.6-1.2-0.6-2.1
		c0-1,0.2-1.7,0.7-2.3s1.1-0.9,1.9-0.9s1.4,0.3,1.7,0.9l0,0v-3.6h0.9L190.4,256.8L190.4,256.8L190.4,256.8z M189.5,254.2v-0.9
		c0-0.5-0.1-0.9-0.5-1.2s-0.7-0.5-1.2-0.5c-0.6,0-1,0.2-1.3,0.6s-0.5,1-0.5,1.7s0.2,1.2,0.5,1.6s0.7,0.6,1.2,0.6s0.9-0.2,1.3-0.6
		C189.3,255.2,189.5,254.7,189.5,254.2L189.5,254.2L189.5,254.2z"/>
	<path class="st8" d="M196.9,254.1h-4.1c0,0.6,0.2,1.1,0.5,1.5s0.8,0.5,1.4,0.5s1.2-0.2,1.8-0.6v0.9c-0.5,0.4-1.2,0.6-2,0.6
		s-1.5-0.3-1.9-0.8c-0.5-0.5-0.7-1.3-0.7-2.2s0.2-1.6,0.8-2.2c0.5-0.6,1.1-0.9,1.9-0.9s1.3,0.2,1.8,0.7s0.6,1.2,0.6,2L196.9,254.1
		L196.9,254.1L196.9,254.1z M196,253.3c0-0.5-0.1-0.9-0.4-1.2s-0.6-0.4-1.1-0.4s-0.8,0.2-1.1,0.5s-0.5,0.7-0.6,1.2h3.2L196,253.3
		L196,253.3L196,253.3z"/>
	<path class="st8" d="M201.1,256.6v-1c0.5,0.4,1.1,0.6,1.7,0.6c0.8,0,1.2-0.3,1.2-0.8c0-0.1,0-0.3-0.1-0.4l-0.3-0.3
		c-0.1-0.1-0.3-0.2-0.4-0.2s-0.3-0.1-0.5-0.2c-0.3-0.1-0.5-0.2-0.7-0.3s-0.4-0.2-0.5-0.4s-0.2-0.3-0.3-0.4s-0.1-0.4-0.1-0.6
		c0-0.3,0.1-0.5,0.2-0.7c0.1-0.2,0.3-0.4,0.5-0.5s0.4-0.2,0.7-0.3s0.5-0.1,0.8-0.1c0.5,0,0.9,0.1,1.3,0.3v0.9
		c-0.4-0.3-0.9-0.4-1.5-0.4c-0.2,0-0.3,0-0.5,0.1s-0.3,0.1-0.4,0.2s-0.2,0.2-0.2,0.3c-0.1,0.1-0.1,0.2-0.1,0.3s0,0.3,0.1,0.4
		s0.1,0.2,0.2,0.3c0.1,0.1,0.2,0.1,0.4,0.2s0.3,0.1,0.5,0.2c0.3,0.1,0.5,0.2,0.7,0.3s0.4,0.2,0.5,0.4s0.2,0.3,0.3,0.4
		s0.1,0.4,0.1,0.6c0,0.3-0.1,0.5-0.2,0.8c-0.1,0.3-0.3,0.4-0.5,0.5s-0.4,0.2-0.7,0.3s-0.6,0.1-0.9,0.1
		C202.1,256.9,201.6,256.8,201.1,256.6L201.1,256.6z"/>
	<path class="st8" d="M211,254.1h-4c0,0.6,0.2,1.1,0.5,1.5s0.8,0.5,1.4,0.5s1.2-0.2,1.8-0.6v0.9c-0.5,0.4-1.2,0.6-2,0.6
		s-1.5-0.3-1.9-0.8c-0.5-0.5-0.7-1.3-0.7-2.2s0.2-1.6,0.8-2.2c0.5-0.6,1.1-0.9,1.9-0.9s1.3,0.2,1.8,0.7s0.6,1.2,0.6,2L211,254.1
		L211,254.1L211,254.1z M210.1,253.3c0-0.5-0.1-0.9-0.4-1.2s-0.6-0.4-1.1-0.4s-0.8,0.2-1.1,0.5s-0.5,0.7-0.6,1.2h3.2L210.1,253.3
		L210.1,253.3L210.1,253.3z"/>
	<path class="st8" d="M217.4,256.3c0,2.1-1,3.2-3.1,3.2c-0.7,0-1.3-0.1-1.9-0.4v-0.9c0.6,0.4,1.3,0.5,1.9,0.5c1.4,0,2.1-0.8,2.1-2.3
		v-0.6l0,0c-0.4,0.7-1.1,1.1-2,1.1c-0.7,0-1.3-0.3-1.7-0.8s-0.7-1.2-0.7-2.1c0-1,0.2-1.8,0.7-2.3s1.1-0.9,1.9-0.9s1.4,0.3,1.7,0.9
		l0,0V251h0.9L217.4,256.3L217.4,256.3L217.4,256.3z M216.4,254.2v-0.9c0-0.5-0.2-0.9-0.5-1.2s-0.7-0.5-1.2-0.5
		c-0.6,0-1,0.2-1.3,0.6c-0.3,0.4-0.5,1-0.5,1.8c0,0.6,0.2,1.2,0.5,1.5c0.3,0.4,0.7,0.6,1.2,0.6s0.9-0.2,1.3-0.6
		C216.3,255.2,216.4,254.8,216.4,254.2L216.4,254.2L216.4,254.2z"/>
	<path class="st8" d="M223.9,256.8H223v-0.9l0,0c-0.4,0.7-1,1.1-1.8,1.1c-1.4,0-2.1-0.8-2.1-2.5V251h0.9v3.3c0,1.2,0.5,1.8,1.4,1.8
		c0.4,0,0.8-0.2,1.1-0.5s0.4-0.8,0.4-1.3V251h0.9L223.9,256.8L223.9,256.8L223.9,256.8z"/>
	<path class="st8" d="M228.8,251.9c-0.2-0.1-0.4-0.2-0.7-0.2c-0.4,0-0.7,0.2-1,0.6c-0.3,0.4-0.4,0.9-0.4,1.5v2.9h-0.9V251h0.9v1.2
		l0,0c0.1-0.4,0.3-0.7,0.6-0.9s0.6-0.3,0.9-0.3c0.2,0,0.4,0,0.6,0.1L228.8,251.9L228.8,251.9L228.8,251.9z"/>
	<path class="st8" d="M230.3,249.5c-0.2,0-0.3-0.1-0.4-0.2s-0.2-0.3-0.2-0.4s0.1-0.3,0.2-0.4s0.3-0.2,0.4-0.2s0.3,0.1,0.4,0.2
		s0.2,0.3,0.2,0.4s-0.1,0.3-0.2,0.4C230.6,249.5,230.5,249.5,230.3,249.5z M230.7,256.8h-0.9V251h0.9V256.8z"/>
	<path class="st8" d="M237.6,256.8h-0.9v-1l0,0c-0.4,0.8-1.1,1.1-2,1.1c-0.7,0-1.3-0.3-1.7-0.8s-0.6-1.2-0.6-2.1
		c0-1,0.2-1.7,0.7-2.3s1.1-0.9,1.9-0.9s1.4,0.3,1.7,0.9l0,0v-3.6h0.9L237.6,256.8L237.6,256.8L237.6,256.8z M236.6,254.2v-0.9
		c0-0.5-0.1-0.9-0.5-1.2s-0.7-0.5-1.2-0.5c-0.6,0-1,0.2-1.3,0.6c-0.3,0.4-0.5,1-0.5,1.7s0.2,1.2,0.5,1.6s0.7,0.6,1.2,0.6
		s0.9-0.2,1.3-0.6C236.5,255.2,236.6,254.7,236.6,254.2L236.6,254.2L236.6,254.2z"/>
	<path class="st8" d="M243.6,256.8h-0.9v-0.9l0,0c-0.4,0.7-1,1-1.8,1c-0.6,0-1-0.1-1.4-0.5c-0.3-0.3-0.5-0.7-0.5-1.2
		c0-1.1,0.6-1.7,1.9-1.9l1.7-0.2c0-1-0.4-1.5-1.2-1.5c-0.7,0-1.3,0.2-1.9,0.7v-0.9c0.6-0.4,1.2-0.5,2-0.5c1.4,0,2,0.7,2,2.2
		L243.6,256.8L243.6,256.8L243.6,256.8z M242.6,253.9l-1.4,0.2c-0.4,0.1-0.8,0.2-1,0.3s-0.3,0.4-0.3,0.8c0,0.3,0.1,0.5,0.3,0.7
		c0.2,0.2,0.5,0.3,0.8,0.3c0.5,0,0.8-0.2,1.1-0.5s0.4-0.7,0.4-1.2L242.6,253.9L242.6,253.9L242.6,253.9z"/>
	<path class="st8" d="M250.2,256.8h-0.9v-1l0,0c-0.4,0.8-1.1,1.1-2,1.1c-0.7,0-1.3-0.3-1.7-0.8s-0.6-1.2-0.6-2.1
		c0-1,0.2-1.7,0.7-2.3s1.1-0.9,1.9-0.9s1.4,0.3,1.7,0.9l0,0v-3.6h0.9L250.2,256.8L250.2,256.8L250.2,256.8z M249.3,254.2v-0.9
		c0-0.5-0.1-0.9-0.5-1.2s-0.7-0.5-1.2-0.5c-0.6,0-1,0.2-1.3,0.6c-0.3,0.4-0.5,1-0.5,1.7s0.2,1.2,0.5,1.6s0.7,0.6,1.2,0.6
		s0.9-0.2,1.3-0.6C249.2,255.2,249.3,254.7,249.3,254.2L249.3,254.2L249.3,254.2z"/>
</g>
<line class="st9" x1="45.5" y1="152" x2="375.1" y2="152"/>
<line class="st9" x1="44.7" y1="189.9" x2="374.3" y2="189.9"/>
<g>
	<path class="st7" d="M261.7,254.4c0-0.1-0.1-0.2-0.1-0.4v-0.5c0-0.2,0-0.5,0.1-0.7s0.2-0.4,0.4-0.6c0.1-0.2,0.3-0.4,0.5-0.5
		c0.2-0.2,0.3-0.3,0.5-0.5c0.1-0.2,0.3-0.3,0.4-0.5s0.1-0.4,0.1-0.6s0-0.4-0.1-0.5s-0.2-0.3-0.3-0.4c-0.1-0.1-0.3-0.2-0.4-0.2
		c-0.2-0.1-0.3-0.1-0.5-0.1c-0.7,0-1.2,0.3-1.7,0.8v-1c0.6-0.4,1.2-0.6,1.9-0.6c0.3,0,0.6,0,0.8,0.1s0.5,0.2,0.7,0.4
		c0.2,0.1,0.4,0.4,0.5,0.6c0.1,0.2,0.2,0.5,0.2,0.8s0,0.6-0.1,0.8s-0.2,0.4-0.4,0.6c-0.2,0.2-0.3,0.4-0.5,0.5s-0.4,0.3-0.5,0.5
		s-0.3,0.3-0.4,0.5s-0.1,0.4-0.1,0.6s0,0.3,0.1,0.5s0.1,0.3,0.1,0.4L261.7,254.4L261.7,254.4z M262.2,256.9c-0.2,0-0.3-0.1-0.5-0.2
		s-0.2-0.3-0.2-0.5s0.1-0.3,0.2-0.5c0.1-0.1,0.3-0.2,0.5-0.2s0.3,0.1,0.5,0.2c0.1,0.1,0.2,0.3,0.2,0.5c0,0.2-0.1,0.3-0.2,0.5
		S262.4,256.9,262.2,256.9z"/>
	<circle class="st10" cx="262.5" cy="252.9" r="6.7"/>
</g>
<g>
	<path class="st11" d="M49.1,140.1H54v0.8h-3.8v2.5h3.2v0.8h-3.2v2.9h3.9v0.8h-5V140.1z"/>
	<path class="st11" d="M55.8,142.2h0.9l0.1,0.8h0c0.5-0.6,1.2-1,1.9-1c1,0,1.5,0.4,1.7,1.1c0.7-0.7,1.3-1.1,2.1-1.1
		c1.3,0,1.9,0.8,1.9,2.3v3.7h-1.1v-3.6c0-1.1-0.4-1.6-1.2-1.6c-0.5,0-1,0.3-1.6,0.9v4.2h-1.1v-3.6c0-1.1-0.4-1.6-1.2-1.6
		c-0.5,0-1,0.3-1.6,0.9v4.2h-1.1V142.2z"/>
	<path class="st11" d="M66.1,146.5c0-1.3,1.2-1.9,3.8-2.2c0-0.8-0.3-1.5-1.3-1.5c-0.7,0-1.4,0.3-1.9,0.6l-0.4-0.7
		c0.6-0.4,1.5-0.8,2.5-0.8c1.5,0,2.2,0.9,2.2,2.4v3.6h-0.9l-0.1-0.7h0c-0.6,0.5-1.3,0.8-2.1,0.8C66.9,148.1,66.1,147.5,66.1,146.5z
		 M69.9,146.6V145c-2.1,0.2-2.8,0.7-2.8,1.5c0,0.7,0.5,0.9,1.1,0.9C68.8,147.3,69.3,147.1,69.9,146.6z"/>
	<path class="st11" d="M72.8,140.3c0-0.4,0.3-0.6,0.7-0.6c0.4,0,0.7,0.2,0.7,0.6c0,0.4-0.3,0.6-0.7,0.6
		C73.1,141,72.8,140.7,72.8,140.3z M73,142.2H74v5.8H73V142.2z"/>
	<path class="st11" d="M76.1,146.8v-7.4h1.1v7.4c0,0.3,0.1,0.4,0.3,0.4c0.1,0,0.1,0,0.2,0l0.1,0.8c-0.2,0.1-0.3,0.1-0.6,0.1
		C76.5,148.1,76.1,147.7,76.1,146.8z"/>
</g>
<g>
	<path class="st11" d="M48,182.1c0-2.5,1.5-4.1,3.6-4.1c1,0,1.8,0.5,2.2,1l-0.6,0.7c-0.4-0.4-1-0.7-1.7-0.7c-1.5,0-2.6,1.2-2.6,3.2
		c0,2,1,3.2,2.5,3.2c0.8,0,1.4-0.3,1.9-0.9l0.6,0.6c-0.6,0.7-1.4,1.1-2.5,1.1C49.5,186.2,48,184.7,48,182.1z"/>
	<path class="st11" d="M55,183.2c0-1.9,1.3-3.1,2.8-3.1c1.5,0,2.8,1.1,2.8,3.1c0,1.9-1.3,3.1-2.8,3.1C56.4,186.2,55,185.1,55,183.2z
		 M59.6,183.2c0-1.3-0.7-2.2-1.7-2.2c-1,0-1.7,0.9-1.7,2.2s0.7,2.2,1.7,2.2C58.9,185.4,59.6,184.5,59.6,183.2z"/>
	<path class="st11" d="M62.2,180.2h0.8l0.1,0.8h0c0.6-0.5,1.2-1,2-1c1.3,0,1.8,0.8,1.8,2.3v3.7h-1v-3.6c0-1.1-0.3-1.6-1.1-1.6
		c-0.6,0-1,0.3-1.7,0.9v4.2h-1V180.2z"/>
	<path class="st11" d="M69.2,184.3V181h-0.9v-0.7l0.9-0.1l0.1-1.6h0.9v1.6h1.6v0.8h-1.6v3.2c0,0.7,0.2,1.1,0.9,1.1
		c0.2,0,0.5-0.1,0.7-0.2L72,186c-0.3,0.1-0.7,0.2-1.1,0.2C69.6,186.2,69.2,185.4,69.2,184.3z"/>
	<path class="st11" d="M73.2,180.2h0.8l0.1,1.1h0c0.4-0.7,1-1.2,1.7-1.2c0.3,0,0.5,0,0.6,0.1l-0.2,0.9c-0.2-0.1-0.3-0.1-0.6-0.1
		c-0.5,0-1.1,0.4-1.5,1.3v3.7h-1V180.2z"/>
	<path class="st11" d="M76.9,184.6c0-1.3,1.1-1.9,3.7-2.2c0-0.8-0.3-1.5-1.2-1.5c-0.7,0-1.3,0.3-1.8,0.6l-0.4-0.7
		c0.6-0.4,1.4-0.8,2.4-0.8c1.5,0,2.1,0.9,2.1,2.4v3.6h-0.8l-0.1-0.7h0c-0.6,0.5-1.2,0.8-2,0.8C77.6,186.2,76.9,185.6,76.9,184.6z
		 M80.6,184.7V183c-2,0.2-2.7,0.7-2.7,1.5c0,0.7,0.5,0.9,1.1,0.9C79.5,185.4,80,185.1,80.6,184.7z"/>
	<path class="st11" d="M82.8,185.4l0.5-0.6c0.5,0.4,1.1,0.7,1.8,0.7c0.8,0,1.2-0.4,1.2-0.9c0-0.6-0.7-0.9-1.4-1.1
		c-0.8-0.3-1.8-0.7-1.8-1.7c0-0.9,0.8-1.7,2.1-1.7c0.8,0,1.4,0.3,1.9,0.7l-0.5,0.6c-0.4-0.3-0.8-0.5-1.4-0.5c-0.8,0-1.1,0.4-1.1,0.8
		c0,0.6,0.7,0.8,1.3,1c0.9,0.3,1.8,0.7,1.8,1.8c0,0.9-0.8,1.7-2.2,1.7C84.2,186.2,83.4,185.9,82.8,185.4z"/>
	<path class="st11" d="M88.3,183.2c0-1.9,1.3-3.1,2.7-3.1c1.5,0,2.4,1.1,2.4,2.7c0,0.2,0,0.4,0,0.6h-4.1c0.1,1.2,0.9,2,2,2
		c0.6,0,1.1-0.2,1.5-0.5l0.4,0.6c-0.5,0.3-1.2,0.6-2,0.6C89.5,186.2,88.3,185.1,88.3,183.2z M92.5,182.7c0-1.2-0.5-1.8-1.5-1.8
		c-0.8,0-1.6,0.7-1.7,1.8H92.5z"/>
	<path class="st11" d="M94.9,180.2h0.8l0.1,0.8h0c0.6-0.5,1.2-1,2-1c1.3,0,1.8,0.8,1.8,2.3v3.7h-1v-3.6c0-1.1-0.3-1.6-1.1-1.6
		c-0.6,0-1,0.3-1.7,0.9v4.2h-1V180.2z M96.6,178.1c-0.4,0-0.5,0.4-0.6,0.9l-0.7,0c0-0.9,0.4-1.6,1.3-1.6c0.9,0,1.2,1,1.8,1
		c0.4,0,0.5-0.4,0.6-0.9l0.7,0c0,0.9-0.4,1.6-1.3,1.6C97.5,179.2,97.2,178.1,96.6,178.1z"/>
	<path class="st11" d="M101.3,184.6c0-1.3,1.1-1.9,3.7-2.2c0-0.8-0.3-1.5-1.2-1.5c-0.7,0-1.3,0.3-1.8,0.6l-0.4-0.7
		c0.6-0.4,1.4-0.8,2.4-0.8c1.5,0,2.1,0.9,2.1,2.4v3.6h-0.8l-0.1-0.7h0c-0.6,0.5-1.2,0.8-2,0.8C102.1,186.2,101.3,185.6,101.3,184.6z
		 M105,184.7V183c-2,0.2-2.7,0.7-2.7,1.5c0,0.7,0.5,0.9,1.1,0.9C103.9,185.4,104.4,185.1,105,184.7z"/>
</g>
</svg>
