<?xml version="1.0" encoding="utf-8"?>
<!-- Generator: Adobe Illustrator 27.4.0, SVG Export Plug-In . SVG Version: 6.00 Build 0)  -->
<svg version="1.1" id="Layer_1" xmlns="http://www.w3.org/2000/svg" xmlns:xlink="http://www.w3.org/1999/xlink" x="0px" y="0px"
	 viewBox="0 0 420 43.1" style="enable-background:new 0 0 420 43.1;" xml:space="preserve">
<style type="text/css">
	.st0{fill:#FFFFFF;}
	.st1{fill:#737373;}
	.st2{fill:none;}
	.st3{fill:#404040;}
</style>
<rect x="-6" y="-5.8" class="st0" width="432" height="54.7"/>
<g>
	<path class="st1" d="M91.5,27.6c-1.3,0-2.3-0.4-3.1-1.3c-0.8-0.9-1.2-2-1.2-3.3c0-1.5,0.4-2.6,1.2-3.5s1.9-1.3,3.2-1.3
		c1.2,0,2.3,0.4,3,1.3c0.8,0.8,1.2,1.9,1.2,3.3c0,1.5-0.4,2.6-1.2,3.5C93.9,27.1,92.8,27.6,91.5,27.6L91.5,27.6z M91.6,19.2
		c-0.9,0-1.7,0.3-2.3,1c-0.6,0.7-0.9,1.6-0.9,2.7s0.3,2,0.9,2.7s1.3,1,2.3,1s1.8-0.3,2.3-1s0.9-1.6,0.9-2.7s-0.3-2.1-0.8-2.8
		C93.3,19.5,92.6,19.2,91.6,19.2z"/>
	<path class="st1" d="M98.5,26.5L98.5,26.5v3.9h-1V21h1v1.1l0,0c0.5-0.9,1.2-1.3,2.2-1.3c0.8,0,1.5,0.3,1.9,0.9
		c0.5,0.6,0.7,1.4,0.7,2.3c0,1.1-0.3,2-0.8,2.6s-1.2,1-2.2,1C99.6,27.6,99,27.2,98.5,26.5C98.5,26.5,98.5,26.5,98.5,26.5z
		 M98.5,23.9v0.9c0,0.5,0.2,1,0.5,1.4s0.8,0.6,1.3,0.6c0.6,0,1.1-0.2,1.5-0.7s0.5-1.1,0.5-2c0-0.7-0.2-1.3-0.5-1.7s-0.8-0.6-1.3-0.6
		c-0.6,0-1.1,0.2-1.4,0.6S98.5,23.2,98.5,23.9C98.5,23.9,98.5,23.9,98.5,23.9z"/>
	<path class="st1" d="M109.5,27.1c-0.5,0.3-1.1,0.5-1.8,0.5c-0.9,0-1.7-0.3-2.2-0.9c-0.6-0.6-0.8-1.4-0.8-2.3c0-1.1,0.3-1.9,0.9-2.6
		s1.4-1,2.4-1c0.6,0,1.1,0.1,1.5,0.3v1.1c-0.5-0.3-1-0.5-1.5-0.5c-0.7,0-1.2,0.2-1.6,0.7s-0.6,1.1-0.6,1.9s0.2,1.4,0.6,1.8
		s0.9,0.7,1.6,0.7c0.6,0,1.1-0.2,1.6-0.6L109.5,27.1L109.5,27.1z"/>
	<path class="st1" d="M111.6,19.3c-0.2,0-0.3-0.1-0.5-0.2c-0.1-0.1-0.2-0.3-0.2-0.5s0.1-0.4,0.2-0.5s0.3-0.2,0.5-0.2
		s0.3,0.1,0.5,0.2c0.1,0.1,0.2,0.3,0.2,0.5s-0.1,0.3-0.2,0.5S111.8,19.3,111.6,19.3z M112.1,27.4h-1v-6.5h1V27.4z"/>
	<path class="st1" d="M116.9,27.6c-1,0-1.7-0.3-2.3-0.9c-0.6-0.6-0.9-1.4-0.9-2.4c0-1.1,0.3-1.9,0.9-2.5s1.4-0.9,2.4-0.9
		s1.7,0.3,2.3,0.9s0.8,1.4,0.8,2.5s-0.3,1.9-0.9,2.5C118.7,27.3,117.9,27.6,116.9,27.6L116.9,27.6z M117,21.7
		c-0.7,0-1.2,0.2-1.6,0.7s-0.6,1.1-0.6,1.9s0.2,1.4,0.6,1.8s0.9,0.7,1.6,0.7s1.2-0.2,1.5-0.6s0.5-1,0.5-1.9s-0.2-1.4-0.5-1.9
		S117.6,21.7,117,21.7L117,21.7z"/>
	<path class="st1" d="M127.1,27.4h-1v-3.7c0-1.4-0.5-2.1-1.5-2.1c-0.5,0-0.9,0.2-1.3,0.6s-0.5,0.9-0.5,1.5v3.7h-1v-6.5h1V22l0,0
		c0.5-0.8,1.2-1.2,2.1-1.2c0.7,0,1.2,0.2,1.6,0.7s0.6,1.1,0.6,2L127.1,27.4C127.1,27.4,127.1,27.4,127.1,27.4z"/>
	<path class="st1" d="M134.3,24.4h-4.6c0,0.7,0.2,1.3,0.6,1.7c0.4,0.4,0.9,0.6,1.5,0.6c0.7,0,1.4-0.2,2-0.7v1
		c-0.6,0.4-1.3,0.6-2.2,0.6s-1.6-0.3-2.2-0.9c-0.5-0.6-0.8-1.4-0.8-2.5c0-1,0.3-1.8,0.9-2.5c0.6-0.7,1.3-1,2.1-1s1.5,0.3,2,0.8
		s0.7,1.3,0.7,2.3V24.4z M133.2,23.6c0-0.6-0.1-1.1-0.4-1.4c-0.3-0.3-0.7-0.5-1.2-0.5s-0.9,0.2-1.2,0.5c-0.3,0.4-0.6,0.8-0.6,1.4
		H133.2L133.2,23.6z"/>
	<path class="st1" d="M135.4,27.2v-1.1c0.6,0.4,1.2,0.6,1.9,0.6c0.9,0,1.4-0.3,1.4-0.9c0-0.2,0-0.3-0.1-0.4s-0.2-0.2-0.3-0.3
		c-0.1-0.1-0.3-0.2-0.5-0.2c-0.2-0.1-0.4-0.1-0.6-0.2c-0.3-0.1-0.5-0.2-0.8-0.3c-0.2-0.1-0.4-0.2-0.5-0.4c-0.1-0.1-0.2-0.3-0.3-0.5
		s-0.1-0.4-0.1-0.6c0-0.3,0.1-0.6,0.2-0.8s0.3-0.4,0.6-0.6c0.2-0.2,0.5-0.3,0.8-0.4s0.6-0.1,0.9-0.1c0.6,0,1.1,0.1,1.5,0.3v1
		c-0.5-0.3-1-0.5-1.6-0.5c-0.2,0-0.4,0-0.5,0.1c-0.2,0-0.3,0.1-0.4,0.2c-0.1,0.1-0.2,0.2-0.3,0.3c-0.1,0.1-0.1,0.2-0.1,0.4
		s0,0.3,0.1,0.4s0.1,0.2,0.3,0.3c0.1,0.1,0.3,0.2,0.4,0.2c0.2,0.1,0.4,0.1,0.6,0.2c0.3,0.1,0.5,0.2,0.8,0.3c0.2,0.1,0.4,0.2,0.6,0.4
		c0.2,0.1,0.3,0.3,0.4,0.5s0.1,0.4,0.1,0.7s-0.1,0.6-0.2,0.8s-0.3,0.4-0.6,0.6c-0.2,0.2-0.5,0.3-0.8,0.4s-0.6,0.1-1,0.1
		C136.5,27.6,135.9,27.4,135.4,27.2L135.4,27.2L135.4,27.2z"/>
	<path class="st1" d="M150.4,27.4h-1v-1.1l0,0c-0.5,0.8-1.2,1.2-2.2,1.2c-0.8,0-1.5-0.3-1.9-0.9s-0.7-1.4-0.7-2.4
		c0-1.1,0.3-1.9,0.8-2.6s1.3-1,2.1-1s1.5,0.4,1.9,1l0,0v-4h1L150.4,27.4L150.4,27.4L150.4,27.4z M149.4,24.5v-1c0-0.5-0.2-1-0.5-1.3
		c-0.4-0.4-0.8-0.5-1.3-0.5c-0.6,0-1.1,0.2-1.5,0.7s-0.5,1.1-0.5,1.9s0.2,1.3,0.5,1.8s0.8,0.6,1.4,0.6s1-0.2,1.4-0.6
		C149.2,25.7,149.3,25.1,149.4,24.5L149.4,24.5L149.4,24.5z"/>
	<path class="st1" d="M157.7,24.4h-4.6c0,0.7,0.2,1.3,0.6,1.7s0.9,0.6,1.5,0.6c0.7,0,1.4-0.2,2-0.7v1c-0.6,0.4-1.3,0.6-2.2,0.6
		s-1.6-0.3-2.1-0.9s-0.8-1.4-0.8-2.5c0-1,0.3-1.8,0.9-2.5s1.3-1,2.1-1s1.5,0.3,2,0.8s0.7,1.3,0.7,2.3L157.7,24.4L157.7,24.4
		L157.7,24.4z M156.6,23.6c0-0.6-0.1-1.1-0.4-1.4c-0.3-0.3-0.7-0.5-1.2-0.5s-0.9,0.2-1.2,0.5c-0.3,0.4-0.6,0.8-0.6,1.4H156.6z"/>
	<path class="st1" d="M163.3,19.3c-0.2,0-0.3-0.1-0.5-0.2s-0.2-0.3-0.2-0.5s0.1-0.4,0.2-0.5c0.1-0.1,0.3-0.2,0.5-0.2
		s0.4,0.1,0.5,0.2s0.2,0.3,0.2,0.5s-0.1,0.3-0.2,0.5C163.7,19.2,163.5,19.3,163.3,19.3z M163.8,27.4h-1v-6.5h1V27.4z"/>
	<path class="st1" d="M171.3,27.4h-1v-3.7c0-1.4-0.5-2.1-1.5-2.1c-0.5,0-0.9,0.2-1.3,0.6s-0.5,0.9-0.5,1.5v3.7h-1v-6.5h1V22l0,0
		c0.5-0.8,1.2-1.2,2.1-1.2c0.7,0,1.2,0.2,1.6,0.7s0.6,1.1,0.6,2L171.3,27.4L171.3,27.4L171.3,27.4z"/>
	<path class="st1" d="M173.8,19.3c-0.2,0-0.3-0.1-0.5-0.2s-0.2-0.3-0.2-0.5s0.1-0.4,0.2-0.5c0.1-0.1,0.3-0.2,0.5-0.2
		s0.4,0.1,0.5,0.2s0.2,0.3,0.2,0.5s-0.1,0.3-0.2,0.5C174.1,19.2,174,19.3,173.8,19.3z M174.3,27.4h-1v-6.5h1V27.4z"/>
	<path class="st1" d="M180.8,27.1c-0.5,0.3-1.1,0.5-1.8,0.5c-0.9,0-1.7-0.3-2.2-0.9c-0.6-0.6-0.9-1.4-0.9-2.3c0-1.1,0.3-1.9,0.9-2.6
		s1.4-1,2.4-1c0.6,0,1.1,0.1,1.5,0.3v1.1c-0.5-0.3-1-0.5-1.5-0.5c-0.7,0-1.2,0.2-1.6,0.7c-0.4,0.5-0.6,1.1-0.6,1.9s0.2,1.4,0.6,1.8
		c0.4,0.4,0.9,0.7,1.6,0.7c0.6,0,1.1-0.2,1.6-0.6V27.1L180.8,27.1z"/>
	<path class="st1" d="M182.9,19.3c-0.2,0-0.3-0.1-0.5-0.2s-0.2-0.3-0.2-0.5s0.1-0.4,0.2-0.5c0.1-0.1,0.3-0.2,0.5-0.2
		s0.4,0.1,0.5,0.2s0.2,0.3,0.2,0.5s-0.1,0.3-0.2,0.5C183.2,19.2,183.1,19.3,182.9,19.3z M183.4,27.4h-1v-6.5h1V27.4z"/>
	<path class="st1" d="M188.2,27.6c-1,0-1.7-0.3-2.3-0.9s-0.9-1.4-0.9-2.4c0-1.1,0.3-1.9,0.9-2.5s1.4-0.9,2.4-0.9s1.7,0.3,2.3,0.9
		s0.8,1.4,0.8,2.5s-0.3,1.9-0.9,2.5C189.9,27.3,189.2,27.6,188.2,27.6L188.2,27.6z M188.3,21.7c-0.7,0-1.2,0.2-1.6,0.7
		c-0.4,0.5-0.6,1.1-0.6,1.9s0.2,1.4,0.6,1.8s0.9,0.7,1.6,0.7s1.2-0.2,1.5-0.6s0.5-1,0.5-1.9s-0.2-1.4-0.5-1.9S188.9,21.7,188.3,21.7
		L188.3,21.7z"/>
	<path class="st1" d="M202.1,27.4h-1v-1.1l0,0c-0.5,0.8-1.2,1.2-2.2,1.2c-0.8,0-1.5-0.3-1.9-0.9s-0.7-1.4-0.7-2.4
		c0-1.1,0.3-1.9,0.8-2.6s1.3-1,2.1-1s1.5,0.4,1.9,1l0,0v-4h1L202.1,27.4L202.1,27.4L202.1,27.4z M201.1,24.5v-1c0-0.5-0.2-1-0.5-1.3
		c-0.4-0.4-0.8-0.5-1.3-0.5c-0.6,0-1.1,0.2-1.5,0.7s-0.5,1.1-0.5,1.9s0.2,1.3,0.5,1.8s0.8,0.6,1.4,0.6s1-0.2,1.4-0.6
		C200.9,25.7,201.1,25.1,201.1,24.5L201.1,24.5L201.1,24.5z"/>
	<path class="st1" d="M209.4,24.4h-4.6c0,0.7,0.2,1.3,0.6,1.7s0.9,0.6,1.5,0.6c0.7,0,1.4-0.2,2-0.7v1c-0.6,0.4-1.3,0.6-2.2,0.6
		s-1.6-0.3-2.1-0.9s-0.8-1.4-0.8-2.5c0-1,0.3-1.8,0.9-2.5s1.3-1,2.1-1s1.5,0.3,2,0.8s0.7,1.3,0.7,2.3L209.4,24.4L209.4,24.4
		L209.4,24.4z M208.4,23.6c0-0.6-0.1-1.1-0.4-1.4c-0.3-0.3-0.7-0.5-1.2-0.5s-0.9,0.2-1.2,0.5c-0.3,0.4-0.6,0.8-0.6,1.4H208.4z"/>
	<path class="st1" d="M214.1,27.2v-1.1c0.6,0.4,1.2,0.6,1.9,0.6c0.9,0,1.4-0.3,1.4-0.9c0-0.2,0-0.3-0.1-0.4s-0.2-0.2-0.3-0.3
		s-0.3-0.2-0.5-0.2c-0.2-0.1-0.4-0.1-0.6-0.2c-0.3-0.1-0.5-0.2-0.8-0.3c-0.2-0.1-0.4-0.2-0.5-0.4s-0.2-0.3-0.3-0.5s-0.1-0.4-0.1-0.6
		c0-0.3,0.1-0.6,0.2-0.8s0.3-0.4,0.6-0.6c0.2-0.2,0.5-0.3,0.8-0.4s0.6-0.1,0.9-0.1c0.6,0,1.1,0.1,1.5,0.3v1c-0.5-0.3-1-0.5-1.6-0.5
		c-0.2,0-0.4,0-0.5,0.1c-0.2,0-0.3,0.1-0.4,0.2c-0.1,0.1-0.2,0.2-0.3,0.3c-0.1,0.1-0.1,0.2-0.1,0.4s0,0.3,0.1,0.4s0.1,0.2,0.3,0.3
		c0.1,0.1,0.3,0.2,0.4,0.2c0.2,0.1,0.4,0.1,0.6,0.2c0.3,0.1,0.5,0.2,0.8,0.3c0.2,0.1,0.4,0.2,0.6,0.4c0.2,0.1,0.3,0.3,0.4,0.5
		s0.1,0.4,0.1,0.7s-0.1,0.6-0.2,0.8s-0.3,0.4-0.6,0.6s-0.5,0.3-0.8,0.4s-0.6,0.1-1,0.1C215.2,27.6,214.6,27.4,214.1,27.2L214.1,27.2
		L214.1,27.2z"/>
	<path class="st1" d="M225.2,24.4h-4.6c0,0.7,0.2,1.3,0.6,1.7s0.9,0.6,1.5,0.6c0.7,0,1.4-0.2,2-0.7v1c-0.6,0.4-1.3,0.6-2.2,0.6
		s-1.6-0.3-2.1-0.9s-0.8-1.4-0.8-2.5c0-1,0.3-1.8,0.9-2.5s1.3-1,2.1-1s1.5,0.3,2,0.8s0.7,1.3,0.7,2.3L225.2,24.4L225.2,24.4
		L225.2,24.4z M224.2,23.6c0-0.6-0.1-1.1-0.4-1.4c-0.3-0.3-0.7-0.5-1.2-0.5s-0.9,0.2-1.2,0.5c-0.3,0.4-0.6,0.8-0.6,1.4H224.2z"/>
	<path class="st1" d="M226.4,27.2v-1.1c0.6,0.4,1.2,0.6,1.9,0.6c0.9,0,1.4-0.3,1.4-0.9c0-0.2,0-0.3-0.1-0.4s-0.2-0.2-0.3-0.3
		s-0.3-0.2-0.5-0.2c-0.2-0.1-0.4-0.1-0.6-0.2c-0.3-0.1-0.5-0.2-0.8-0.3c-0.2-0.1-0.4-0.2-0.5-0.4s-0.2-0.3-0.3-0.5s-0.1-0.4-0.1-0.6
		c0-0.3,0.1-0.6,0.2-0.8s0.3-0.4,0.6-0.6c0.2-0.2,0.5-0.3,0.8-0.4s0.6-0.1,0.9-0.1c0.6,0,1.1,0.1,1.5,0.3v1c-0.5-0.3-1-0.5-1.6-0.5
		c-0.2,0-0.4,0-0.5,0.1c-0.2,0-0.3,0.1-0.4,0.2c-0.1,0.1-0.2,0.2-0.3,0.3c-0.1,0.1-0.1,0.2-0.1,0.4s0,0.3,0.1,0.4s0.1,0.2,0.3,0.3
		c0.1,0.1,0.3,0.2,0.4,0.2c0.2,0.1,0.4,0.1,0.6,0.2c0.3,0.1,0.5,0.2,0.8,0.3c0.2,0.1,0.4,0.2,0.6,0.4c0.2,0.1,0.3,0.3,0.4,0.5
		s0.1,0.4,0.1,0.7s-0.1,0.6-0.2,0.8s-0.3,0.4-0.6,0.6s-0.5,0.3-0.8,0.4s-0.6,0.1-1,0.1C227.4,27.6,226.9,27.4,226.4,27.2L226.4,27.2
		L226.4,27.2z"/>
	<path class="st1" d="M232.8,19.3c-0.2,0-0.3-0.1-0.5-0.2s-0.2-0.3-0.2-0.5s0.1-0.4,0.2-0.5c0.1-0.1,0.3-0.2,0.5-0.2
		s0.4,0.1,0.5,0.2s0.2,0.3,0.2,0.5s-0.1,0.3-0.2,0.5C233.1,19.2,233,19.3,232.8,19.3z M233.3,27.4h-1v-6.5h1V27.4z"/>
	<path class="st1" d="M238.1,27.6c-1,0-1.7-0.3-2.3-0.9s-0.9-1.4-0.9-2.4c0-1.1,0.3-1.9,0.9-2.5c0.6-0.6,1.4-0.9,2.4-0.9
		s1.7,0.3,2.3,0.9s0.8,1.4,0.8,2.5s-0.3,1.9-0.9,2.5C239.9,27.3,239.1,27.6,238.1,27.6L238.1,27.6z M238.2,21.7
		c-0.7,0-1.2,0.2-1.6,0.7c-0.4,0.5-0.6,1.1-0.6,1.9s0.2,1.4,0.6,1.8s0.9,0.7,1.6,0.7s1.2-0.2,1.5-0.6s0.5-1,0.5-1.9
		s-0.2-1.4-0.5-1.9S238.8,21.7,238.2,21.7L238.2,21.7z M239.7,17.7l-1.7,2.1h-0.8l1.4-2.1H239.7z"/>
	<path class="st1" d="M248.3,27.4h-1v-3.7c0-1.4-0.5-2.1-1.5-2.1c-0.5,0-0.9,0.2-1.3,0.6s-0.5,0.9-0.5,1.5v3.7h-1v-6.5h1V22l0,0
		c0.5-0.8,1.2-1.2,2.1-1.2c0.7,0,1.2,0.2,1.6,0.7c0.4,0.5,0.6,1.1,0.6,2L248.3,27.4L248.3,27.4L248.3,27.4z"/>
</g>
<g>
	<rect x="47" y="9.1" class="st2" width="26.8" height="26.8"/>
	<path class="st3" d="M69.3,27.3v4.1h-4.5v-2.2h-2.2V27h-2.2v-1.8c-0.9,0.5-1.8,0.7-2.8,0.7c-1.1,0-2.2-0.3-3.1-0.8
		c-0.5-0.3-0.9-0.6-1.2-1c-0.4-0.4-0.7-0.8-1-1.2s-0.5-1-0.6-1.5s-0.2-1.1-0.2-1.6c0-1.1,0.3-2.2,0.8-3.1c0.3-0.5,0.6-0.9,1-1.2
		s0.8-0.7,1.2-1s1-0.5,1.5-0.6s1.1-0.2,1.6-0.2c1.1,0,2.2,0.3,3.1,0.8c0.5,0.3,0.9,0.6,1.2,1c0.4,0.4,0.7,0.8,1,1.2s0.5,1,0.6,1.5
		s0.2,1.1,0.2,1.6c0,0.3,0,0.6-0.1,0.9s-0.1,0.6-0.2,0.9L69.3,27.3L69.3,27.3z M68.2,27.8l-6-6c0.1-0.3,0.2-0.7,0.3-1s0.1-0.7,0.1-1
		c0-0.7-0.1-1.3-0.4-2c-0.2-0.6-0.6-1.1-1.1-1.6s-1-0.8-1.6-1.1s-1.3-0.4-2-0.4s-1.3,0.1-2,0.4c-0.6,0.2-1.1,0.6-1.6,1.1
		s-0.8,1-1.1,1.6s-0.4,1.3-0.4,2s0.1,1.3,0.4,2c0.2,0.6,0.6,1.1,1.1,1.6s1,0.8,1.6,1.1c1.2,0.5,2.4,0.5,3.6,0.1
		c0.5-0.2,1-0.5,1.5-0.8h0.8V26h2.2v2.2h2.2v2.2H68L68.2,27.8C68.2,27.8,68.2,27.8,68.2,27.8z M55.9,17c0.2,0,0.3,0,0.4,0.1
		c0.1,0.1,0.2,0.1,0.3,0.2s0.2,0.2,0.2,0.4c0.1,0.1,0.1,0.3,0.1,0.4s0,0.3-0.1,0.4s-0.1,0.2-0.2,0.4c-0.1,0.1-0.2,0.2-0.4,0.2
		s-0.3,0.1-0.4,0.1c-0.2,0-0.3,0-0.4-0.1c-0.1-0.1-0.2-0.1-0.3-0.2s-0.2-0.2-0.2-0.4c-0.1-0.1-0.1-0.3-0.1-0.4s0-0.3,0.1-0.4
		s0.1-0.2,0.2-0.4c0.1-0.1,0.2-0.2,0.4-0.2S55.8,17,55.9,17z"/>
</g>
</svg>
